<mxfile host="Electron" modified="2023-12-09T19:13:31.781Z" agent="Mozilla/5.0 (Windows NT 10.0; Win64; x64) AppleWebKit/537.36 (KHTML, like Gecko) draw.io/22.1.2 Chrome/114.0.5735.289 Electron/25.9.4 Safari/537.36" etag="im0KJhvb6P_R3AuGiUxQ" version="22.1.2" type="device">
  <diagram name="Page-1" id="5f0bae14-7c28-e335-631c-24af17079c00">
    <mxGraphModel dx="1178" dy="790" grid="1" gridSize="10" guides="1" tooltips="1" connect="1" arrows="1" fold="1" page="1" pageScale="1" pageWidth="1100" pageHeight="850" background="none" math="0" shadow="0">
      <root>
        <mxCell id="0" />
        <mxCell id="1" parent="0" />
        <mxCell id="39150e848f15840c-1" value="Программа" style="verticalAlign=top;align=left;spacingTop=8;spacingLeft=2;spacingRight=12;shape=cube;size=10;direction=south;fontStyle=4;html=1;rounded=0;shadow=0;comic=0;labelBackgroundColor=none;strokeWidth=1;fontFamily=Verdana;fontSize=12" parent="1" vertex="1">
          <mxGeometry x="130" y="55" width="550" height="740" as="geometry" />
        </mxCell>
        <mxCell id="39150e848f15840c-5" value="Главное окно" style="shape=component;align=left;spacingLeft=36;rounded=0;shadow=0;comic=0;labelBackgroundColor=none;strokeWidth=1;fontFamily=Verdana;fontSize=12;html=1;" parent="1" vertex="1">
          <mxGeometry x="130" y="360" width="140" height="60" as="geometry" />
        </mxCell>
        <mxCell id="5bBqUqaJ32wrSf7lyNE0-1" value="Должности" style="shape=component;align=left;spacingLeft=36;rounded=0;shadow=0;comic=0;labelBackgroundColor=none;strokeWidth=1;fontFamily=Verdana;fontSize=12;html=1;" vertex="1" parent="1">
          <mxGeometry x="350" y="420" width="120" height="60" as="geometry" />
        </mxCell>
        <mxCell id="5bBqUqaJ32wrSf7lyNE0-2" value="Организация" style="shape=component;align=left;spacingLeft=36;rounded=0;shadow=0;comic=0;labelBackgroundColor=none;strokeWidth=1;fontFamily=Verdana;fontSize=12;html=1;" vertex="1" parent="1">
          <mxGeometry x="350" y="340" width="120" height="60" as="geometry" />
        </mxCell>
        <mxCell id="5bBqUqaJ32wrSf7lyNE0-3" value="Поставщики" style="shape=component;align=left;spacingLeft=36;rounded=0;shadow=0;comic=0;labelBackgroundColor=none;strokeWidth=1;fontFamily=Verdana;fontSize=12;html=1;" vertex="1" parent="1">
          <mxGeometry x="350" y="260" width="120" height="60" as="geometry" />
        </mxCell>
        <mxCell id="5bBqUqaJ32wrSf7lyNE0-4" value="Авторизация" style="shape=component;align=left;spacingLeft=36;rounded=0;shadow=0;comic=0;labelBackgroundColor=none;strokeWidth=1;fontFamily=Verdana;fontSize=12;html=1;" vertex="1" parent="1">
          <mxGeometry x="350" y="170" width="120" height="60" as="geometry" />
        </mxCell>
        <mxCell id="5bBqUqaJ32wrSf7lyNE0-5" value="Поступление" style="shape=component;align=left;spacingLeft=36;rounded=0;shadow=0;comic=0;labelBackgroundColor=none;strokeWidth=1;fontFamily=Verdana;fontSize=12;html=1;" vertex="1" parent="1">
          <mxGeometry x="490" y="130" width="120" height="60" as="geometry" />
        </mxCell>
        <mxCell id="5bBqUqaJ32wrSf7lyNE0-6" value="Заказ" style="shape=component;align=left;spacingLeft=36;rounded=0;shadow=0;comic=0;labelBackgroundColor=none;strokeWidth=1;fontFamily=Verdana;fontSize=12;html=1;" vertex="1" parent="1">
          <mxGeometry x="490" y="370" width="120" height="60" as="geometry" />
        </mxCell>
        <mxCell id="5bBqUqaJ32wrSf7lyNE0-7" value="Просмотр" style="shape=component;align=left;spacingLeft=36;rounded=0;shadow=0;comic=0;labelBackgroundColor=none;strokeWidth=1;fontFamily=Verdana;fontSize=12;html=1;" vertex="1" parent="1">
          <mxGeometry x="490" y="290" width="120" height="60" as="geometry" />
        </mxCell>
        <mxCell id="5bBqUqaJ32wrSf7lyNE0-8" value="Списание" style="shape=component;align=left;spacingLeft=36;rounded=0;shadow=0;comic=0;labelBackgroundColor=none;strokeWidth=1;fontFamily=Verdana;fontSize=12;html=1;" vertex="1" parent="1">
          <mxGeometry x="490" y="210" width="120" height="60" as="geometry" />
        </mxCell>
        <mxCell id="5bBqUqaJ32wrSf7lyNE0-9" value="Графики" style="shape=component;align=left;spacingLeft=36;rounded=0;shadow=0;comic=0;labelBackgroundColor=none;strokeWidth=1;fontFamily=Verdana;fontSize=12;html=1;" vertex="1" parent="1">
          <mxGeometry x="490" y="450" width="120" height="60" as="geometry" />
        </mxCell>
        <mxCell id="5bBqUqaJ32wrSf7lyNE0-11" value="База данных" style="verticalAlign=top;align=left;spacingTop=8;spacingLeft=2;spacingRight=12;shape=cube;size=10;direction=south;fontStyle=4;html=1;whiteSpace=wrap;movable=1;resizable=1;rotatable=1;deletable=1;editable=1;locked=0;connectable=1;" vertex="1" parent="1">
          <mxGeometry x="750" y="330" width="180" height="120" as="geometry" />
        </mxCell>
        <mxCell id="5bBqUqaJ32wrSf7lyNE0-12" value="Схема БД" style="shape=module;align=left;spacingLeft=20;align=center;verticalAlign=top;whiteSpace=wrap;html=1;movable=1;resizable=1;rotatable=1;deletable=1;editable=1;locked=0;connectable=1;" vertex="1" parent="1">
          <mxGeometry x="790" y="370" width="100" height="50" as="geometry" />
        </mxCell>
        <mxCell id="5bBqUqaJ32wrSf7lyNE0-13" value="Сотрудники" style="shape=component;align=left;spacingLeft=36;rounded=0;shadow=0;comic=0;labelBackgroundColor=none;strokeWidth=1;fontFamily=Verdana;fontSize=12;html=1;" vertex="1" parent="1">
          <mxGeometry x="350" y="500" width="120" height="60" as="geometry" />
        </mxCell>
        <mxCell id="5bBqUqaJ32wrSf7lyNE0-18" value="" style="endArrow=open;endFill=1;endSize=12;html=1;rounded=0;" edge="1" parent="1">
          <mxGeometry width="160" relative="1" as="geometry">
            <mxPoint x="470" y="520" as="sourcePoint" />
            <mxPoint x="670" y="520" as="targetPoint" />
          </mxGeometry>
        </mxCell>
        <mxCell id="5bBqUqaJ32wrSf7lyNE0-19" value="" style="endArrow=open;endFill=1;endSize=12;html=1;rounded=0;entryX=0.595;entryY=-0.002;entryDx=0;entryDy=0;entryPerimeter=0;" edge="1" parent="1">
          <mxGeometry width="160" relative="1" as="geometry">
            <mxPoint x="470" y="200" as="sourcePoint" />
            <mxPoint x="671" y="200" as="targetPoint" />
          </mxGeometry>
        </mxCell>
        <mxCell id="5bBqUqaJ32wrSf7lyNE0-20" value="" style="endArrow=open;endFill=1;endSize=12;html=1;rounded=0;entryX=0.595;entryY=-0.002;entryDx=0;entryDy=0;entryPerimeter=0;" edge="1" parent="1">
          <mxGeometry width="160" relative="1" as="geometry">
            <mxPoint x="470" y="280" as="sourcePoint" />
            <mxPoint x="671" y="280" as="targetPoint" />
          </mxGeometry>
        </mxCell>
        <mxCell id="5bBqUqaJ32wrSf7lyNE0-21" value="" style="endArrow=open;endFill=1;endSize=12;html=1;rounded=0;entryX=0.595;entryY=-0.002;entryDx=0;entryDy=0;entryPerimeter=0;" edge="1" parent="1">
          <mxGeometry width="160" relative="1" as="geometry">
            <mxPoint x="470" y="360" as="sourcePoint" />
            <mxPoint x="671" y="360" as="targetPoint" />
          </mxGeometry>
        </mxCell>
        <mxCell id="5bBqUqaJ32wrSf7lyNE0-22" value="" style="endArrow=open;endFill=1;endSize=12;html=1;rounded=0;entryX=0.595;entryY=-0.002;entryDx=0;entryDy=0;entryPerimeter=0;" edge="1" parent="1">
          <mxGeometry width="160" relative="1" as="geometry">
            <mxPoint x="470" y="444.5" as="sourcePoint" />
            <mxPoint x="671" y="444.5" as="targetPoint" />
          </mxGeometry>
        </mxCell>
        <mxCell id="5bBqUqaJ32wrSf7lyNE0-23" value="" style="endArrow=open;endFill=1;endSize=12;html=1;rounded=0;" edge="1" parent="1">
          <mxGeometry width="160" relative="1" as="geometry">
            <mxPoint x="610" y="159.5" as="sourcePoint" />
            <mxPoint x="670" y="160" as="targetPoint" />
          </mxGeometry>
        </mxCell>
        <mxCell id="5bBqUqaJ32wrSf7lyNE0-25" value="" style="endArrow=open;endFill=1;endSize=12;html=1;rounded=0;" edge="1" parent="1">
          <mxGeometry width="160" relative="1" as="geometry">
            <mxPoint x="610" y="230" as="sourcePoint" />
            <mxPoint x="670" y="230.5" as="targetPoint" />
          </mxGeometry>
        </mxCell>
        <mxCell id="5bBqUqaJ32wrSf7lyNE0-26" value="" style="endArrow=open;endFill=1;endSize=12;html=1;rounded=0;" edge="1" parent="1">
          <mxGeometry width="160" relative="1" as="geometry">
            <mxPoint x="610" y="310" as="sourcePoint" />
            <mxPoint x="670" y="310.5" as="targetPoint" />
          </mxGeometry>
        </mxCell>
        <mxCell id="5bBqUqaJ32wrSf7lyNE0-27" value="" style="endArrow=open;endFill=1;endSize=12;html=1;rounded=0;" edge="1" parent="1">
          <mxGeometry width="160" relative="1" as="geometry">
            <mxPoint x="610" y="390" as="sourcePoint" />
            <mxPoint x="670" y="390.5" as="targetPoint" />
          </mxGeometry>
        </mxCell>
        <mxCell id="5bBqUqaJ32wrSf7lyNE0-28" value="" style="endArrow=open;endFill=1;endSize=12;html=1;rounded=0;" edge="1" parent="1">
          <mxGeometry width="160" relative="1" as="geometry">
            <mxPoint x="610" y="470" as="sourcePoint" />
            <mxPoint x="670" y="470.5" as="targetPoint" />
          </mxGeometry>
        </mxCell>
        <mxCell id="5bBqUqaJ32wrSf7lyNE0-30" value="" style="endArrow=classic;html=1;rounded=0;entryX=0;entryY=0.3;entryDx=0;entryDy=0;" edge="1" parent="1" source="39150e848f15840c-5" target="5bBqUqaJ32wrSf7lyNE0-13">
          <mxGeometry width="50" height="50" relative="1" as="geometry">
            <mxPoint x="520" y="530" as="sourcePoint" />
            <mxPoint x="570" y="480" as="targetPoint" />
          </mxGeometry>
        </mxCell>
        <mxCell id="5bBqUqaJ32wrSf7lyNE0-31" value="" style="endArrow=classic;html=1;rounded=0;entryX=0;entryY=0.7;entryDx=0;entryDy=0;exitX=1;exitY=0.967;exitDx=0;exitDy=0;exitPerimeter=0;" edge="1" parent="1" source="39150e848f15840c-5" target="5bBqUqaJ32wrSf7lyNE0-1">
          <mxGeometry width="50" height="50" relative="1" as="geometry">
            <mxPoint x="248" y="405" as="sourcePoint" />
            <mxPoint x="370" y="503" as="targetPoint" />
          </mxGeometry>
        </mxCell>
        <mxCell id="5bBqUqaJ32wrSf7lyNE0-32" value="" style="endArrow=classic;html=1;rounded=0;entryX=0;entryY=0.7;entryDx=0;entryDy=0;exitX=1;exitY=0.75;exitDx=0;exitDy=0;" edge="1" parent="1" source="39150e848f15840c-5" target="5bBqUqaJ32wrSf7lyNE0-2">
          <mxGeometry width="50" height="50" relative="1" as="geometry">
            <mxPoint x="260" y="428" as="sourcePoint" />
            <mxPoint x="360" y="472" as="targetPoint" />
          </mxGeometry>
        </mxCell>
        <mxCell id="5bBqUqaJ32wrSf7lyNE0-33" value="" style="endArrow=classic;html=1;rounded=0;exitX=1;exitY=0.5;exitDx=0;exitDy=0;entryX=0;entryY=0.85;entryDx=0;entryDy=0;entryPerimeter=0;" edge="1" parent="1" source="39150e848f15840c-5" target="5bBqUqaJ32wrSf7lyNE0-3">
          <mxGeometry width="50" height="50" relative="1" as="geometry">
            <mxPoint x="260" y="415" as="sourcePoint" />
            <mxPoint x="360" y="392" as="targetPoint" />
          </mxGeometry>
        </mxCell>
        <mxCell id="5bBqUqaJ32wrSf7lyNE0-34" value="" style="endArrow=classic;html=1;rounded=0;exitX=0.992;exitY=0.133;exitDx=0;exitDy=0;exitPerimeter=0;entryX=0;entryY=0.7;entryDx=0;entryDy=0;" edge="1" parent="1" source="39150e848f15840c-5" target="5bBqUqaJ32wrSf7lyNE0-4">
          <mxGeometry width="50" height="50" relative="1" as="geometry">
            <mxPoint x="240" y="290" as="sourcePoint" />
            <mxPoint x="340" y="202" as="targetPoint" />
          </mxGeometry>
        </mxCell>
        <mxCell id="5bBqUqaJ32wrSf7lyNE0-35" value="" style="endArrow=classic;html=1;rounded=0;exitX=1;exitY=0.25;exitDx=0;exitDy=0;entryX=0;entryY=0.7;entryDx=0;entryDy=0;" edge="1" parent="1" source="39150e848f15840c-5" target="5bBqUqaJ32wrSf7lyNE0-5">
          <mxGeometry width="50" height="50" relative="1" as="geometry">
            <mxPoint x="259" y="378" as="sourcePoint" />
            <mxPoint x="360" y="222" as="targetPoint" />
          </mxGeometry>
        </mxCell>
        <mxCell id="5bBqUqaJ32wrSf7lyNE0-36" value="" style="endArrow=classic;html=1;rounded=0;entryX=0;entryY=0.7;entryDx=0;entryDy=0;" edge="1" parent="1" target="5bBqUqaJ32wrSf7lyNE0-8">
          <mxGeometry width="50" height="50" relative="1" as="geometry">
            <mxPoint x="270" y="380" as="sourcePoint" />
            <mxPoint x="372" y="330" as="targetPoint" />
          </mxGeometry>
        </mxCell>
        <mxCell id="5bBqUqaJ32wrSf7lyNE0-37" value="" style="endArrow=classic;html=1;rounded=0;exitX=1;exitY=0.5;exitDx=0;exitDy=0;entryX=0;entryY=0.7;entryDx=0;entryDy=0;" edge="1" parent="1" source="39150e848f15840c-5" target="5bBqUqaJ32wrSf7lyNE0-7">
          <mxGeometry width="50" height="50" relative="1" as="geometry">
            <mxPoint x="260" y="385" as="sourcePoint" />
            <mxPoint x="500" y="182" as="targetPoint" />
          </mxGeometry>
        </mxCell>
        <mxCell id="5bBqUqaJ32wrSf7lyNE0-38" value="" style="endArrow=classic;html=1;rounded=0;entryX=0;entryY=0.3;entryDx=0;entryDy=0;exitX=1;exitY=0.65;exitDx=0;exitDy=0;exitPerimeter=0;" edge="1" parent="1" source="39150e848f15840c-5" target="5bBqUqaJ32wrSf7lyNE0-6">
          <mxGeometry width="50" height="50" relative="1" as="geometry">
            <mxPoint x="250" y="390" as="sourcePoint" />
            <mxPoint x="500" y="342" as="targetPoint" />
          </mxGeometry>
        </mxCell>
        <mxCell id="5bBqUqaJ32wrSf7lyNE0-39" value="" style="endArrow=classic;html=1;rounded=0;entryX=0;entryY=0.3;entryDx=0;entryDy=0;exitX=1;exitY=0.75;exitDx=0;exitDy=0;" edge="1" parent="1" source="39150e848f15840c-5" target="5bBqUqaJ32wrSf7lyNE0-9">
          <mxGeometry width="50" height="50" relative="1" as="geometry">
            <mxPoint x="260" y="400" as="sourcePoint" />
            <mxPoint x="500" y="398" as="targetPoint" />
          </mxGeometry>
        </mxCell>
        <mxCell id="5bBqUqaJ32wrSf7lyNE0-40" value="" style="endArrow=classic;html=1;rounded=0;entryX=0.45;entryY=1;entryDx=0;entryDy=0;entryPerimeter=0;exitX=0.445;exitY=-0.004;exitDx=0;exitDy=0;exitPerimeter=0;" edge="1" parent="1" source="39150e848f15840c-1" target="5bBqUqaJ32wrSf7lyNE0-11">
          <mxGeometry width="50" height="50" relative="1" as="geometry">
            <mxPoint x="520" y="530" as="sourcePoint" />
            <mxPoint x="570" y="480" as="targetPoint" />
          </mxGeometry>
        </mxCell>
      </root>
    </mxGraphModel>
  </diagram>
</mxfile>
